<?xml version="1.0" standalone="no"?>
<!DOCTYPE svg PUBLIC "-//W3C//DTD SVG 20010904//EN"
 "http://www.w3.org/TR/2001/REC-SVG-20010904/DTD/svg10.dtd">
<svg version="1.0" xmlns="http://www.w3.org/2000/svg"
 width="300.000000pt" height="258.000000pt" viewBox="0 0 300.000000 258.000000"
 preserveAspectRatio="xMidYMid meet">
<metadata>
Created by potrace 1.10, written by Peter Selinger 2001-2011
</metadata>
<g transform="translate(0.000000,258.000000) scale(0.100000,-0.100000)"
fill="#000000" stroke="none">
<path d="M1209 2445 c-240 -38 -473 -182 -607 -377 -259 -376 -211 -879 114
-1188 239 -228 270 -268 320 -410 13 -39 27 -98 31 -131 3 -36 14 -70 25 -85
l19 -24 382 0 c325 1 385 3 402 16 18 13 20 30 25 174 6 200 0 192 150 200
124 6 148 18 187 86 21 36 23 52 23 194 0 85 4 161 9 169 5 8 35 18 68 22 66
9 103 40 103 87 0 16 -36 84 -90 171 -83 134 -90 149 -90 197 0 69 -25 210
-51 287 -77 223 -231 404 -441 516 -96 52 -178 79 -296 96 -115 18 -168 18
-283 0z m328 -42 c269 -56 509 -246 618 -489 15 -33 31 -66 35 -76 18 -34 40
-139 46 -215 8 -122 20 -158 91 -272 36 -58 72 -116 79 -128 27 -44 14 -81
-32 -88 -62 -11 -75 -16 -103 -46 l-29 -30 -1 -156 c-2 -224 -13 -239 -188
-253 -95 -7 -108 -11 -132 -34 -25 -25 -26 -31 -29 -159 -3 -159 -5 -171 -34
-184 -14 -6 -162 -10 -365 -11 -394 -2 -377 -6 -392 88 -29 173 -105 315 -233
434 -167 156 -204 195 -253 271 -29 44 -59 98 -66 120 -8 22 -17 42 -20 45 -4
3 -17 41 -29 85 -33 117 -34 346 -2 459 25 85 84 211 134 284 37 54 135 155
194 200 49 38 226 128 269 138 120 26 173 33 267 32 60 0 138 -7 175 -15z"/>
<path d="M1034 2192 c-23 -17 -50 -41 -61 -55 -12 -16 -35 -28 -59 -33 -21 -3
-51 -13 -65 -20 -26 -13 -70 -65 -82 -96 -3 -9 -23 -26 -44 -36 -71 -37 -106
-100 -102 -185 1 -29 -5 -77 -14 -107 -18 -60 -16 -105 8 -152 10 -20 13 -44
9 -69 -13 -79 35 -172 109 -209 15 -7 38 -33 52 -56 27 -47 72 -78 124 -88 22
-4 50 -22 78 -50 94 -95 209 -97 305 -6 40 39 55 47 69 40 9 -5 41 -10 70 -11
40 -1 65 -8 94 -27 70 -46 86 -52 124 -46 66 11 104 56 111 133 l5 55 45 -2
c77 -4 140 56 140 136 0 40 -38 94 -83 115 -47 22 -89 13 -144 -32 -30 -24
-47 -30 -78 -29 -41 1 -84 24 -85 44 0 6 -16 26 -35 45 -19 19 -35 37 -35 42
0 4 97 7 216 7 l216 0 50 -36 c57 -42 106 -48 156 -19 31 18 68 78 67 105 -5
67 -46 122 -101 136 -39 10 -86 -4 -123 -36 -32 -29 -38 -30 -135 -32 -55 -1
-121 -2 -146 -2 -25 -1 -83 1 -130 4 -81 6 -84 7 -57 20 15 7 43 35 62 62 34
47 36 48 87 48 42 0 57 -5 79 -26 38 -36 111 -43 155 -16 33 21 64 76 64 112
0 36 -31 91 -64 112 -23 14 -44 18 -81 15 -42 -3 -57 -9 -87 -40 -35 -34 -41
-37 -98 -37 -35 0 -60 4 -60 10 0 16 47 60 64 60 31 0 77 37 97 77 27 55 14
108 -36 152 -64 56 -161 36 -201 -41 -12 -24 -14 -46 -9 -93 6 -60 5 -63 -21
-84 -18 -14 -37 -20 -55 -17 -42 6 -46 12 -48 58 -2 73 -14 110 -49 156 -36
47 -85 69 -162 71 -58 2 -70 -1 -106 -27z m179 -16 c71 -29 107 -101 107 -213
l0 -63 75 0 74 0 32 46 c31 45 31 47 15 74 -44 76 20 162 107 146 110 -21 101
-178 -10 -193 -38 -5 -46 -11 -74 -55 -17 -27 -40 -53 -50 -58 -10 -6 -52 -10
-93 -10 l-76 0 0 -70 0 -71 77 3 78 3 37 57 c43 65 58 71 147 66 40 -2 61 1
61 8 0 6 9 23 20 37 25 32 79 44 119 27 37 -15 65 -70 56 -110 -8 -36 -58 -80
-91 -80 -33 0 -81 25 -94 50 -9 17 -21 20 -80 20 l-70 0 -35 -55 c-19 -30 -44
-59 -54 -65 -11 -5 -54 -10 -95 -10 l-76 0 0 -40 0 -40 323 0 322 0 10 23 c13
30 76 60 109 51 112 -28 94 -194 -22 -194 -39 0 -92 34 -92 60 0 7 -105 10
-325 10 l-325 0 0 -40 0 -40 74 0 c41 0 81 -3 89 -6 9 -3 30 -30 48 -59 l32
-54 80 -3 c74 -3 80 -1 88 18 27 73 148 69 179 -5 22 -54 -9 -118 -68 -136
-35 -10 -90 13 -107 46 -15 29 -17 29 -100 29 -93 0 -98 3 -142 74 -14 23 -28
43 -30 46 -2 3 -36 5 -74 6 l-69 2 0 -80 c0 -73 3 -83 35 -133 l35 -55 72 0
c71 1 74 2 93 33 27 42 71 55 117 33 95 -46 65 -186 -40 -186 -39 0 -92 34
-92 60 0 6 -29 10 -74 10 -91 0 -101 3 -131 49 l-25 36 0 -29 c0 -65 -60 -129
-137 -146 -67 -16 -158 29 -183 89 -11 27 -17 31 -52 31 -68 0 -138 54 -138
106 0 19 -8 25 -39 34 -75 20 -122 106 -100 184 8 28 6 41 -11 68 -27 44 -27
122 0 166 17 27 19 40 11 68 -21 77 25 163 100 185 32 10 39 17 39 37 0 16 14
39 40 64 36 34 47 38 90 38 28 0 50 4 50 9 0 16 52 73 85 92 36 22 102 25 148
5z m277 -365 c0 -5 -12 -23 -26 -40 -34 -40 -85 -44 -102 -6 -17 37 7 55 74
55 30 0 54 -4 54 -9z m-21 -486 c17 -24 45 -54 62 -66 l31 -22 -29 -28 c-27
-27 -51 -34 -100 -31 -36 3 -74 63 -78 124 -2 29 -1 56 1 60 3 5 22 8 43 8 33
0 41 -5 70 -45z"/>
<path d="M1074 2121 c-27 -17 -39 -36 -58 -93 -6 -20 -23 -22 -59 -9 -14 5
-34 7 -46 4 -20 -5 -20 -5 -1 -42 23 -42 67 -92 104 -116 14 -10 26 -24 26
-31 0 -21 -27 -29 -45 -14 -19 15 -17 17 -43 -42 -15 -35 -26 -48 -41 -48 -26
0 -27 20 -1 70 24 47 25 73 4 91 -8 7 -24 30 -36 52 -22 44 -35 40 -40 -13 -3
-32 -6 -35 -41 -41 -75 -12 -115 -85 -83 -148 16 -30 16 -33 -7 -64 -13 -17
-27 -42 -30 -55 -7 -31 11 -93 34 -115 23 -21 23 -20 3 -59 -32 -62 9 -135 83
-147 34 -6 38 -10 44 -44 3 -22 18 -50 33 -65 l26 -27 0 25 c1 36 36 110 53
110 8 0 20 -6 26 -14 9 -11 8 -18 -5 -30 -9 -9 -20 -32 -24 -51 -8 -34 -8 -34
27 -32 31 2 35 -1 48 -36 7 -20 19 -45 26 -54 23 -26 78 -45 112 -37 82 18
107 64 107 197 l0 94 -56 7 c-66 8 -111 28 -141 63 l-21 26 -26 -21 c-29 -22
-119 -47 -136 -37 -5 3 -10 15 -10 26 0 14 7 19 25 19 40 0 89 24 123 61 26
28 33 31 46 20 9 -8 16 -21 16 -30 0 -38 78 -81 146 -81 l34 0 0 108 0 107
-53 22 c-109 47 -145 40 -217 -46 -26 -30 -47 -48 -56 -44 -18 7 -18 37 1 53
24 20 18 30 -19 30 -30 0 -37 -5 -53 -37 -13 -28 -25 -39 -45 -41 -35 -4 -37
19 -7 49 18 18 20 28 14 74 -3 31 -2 56 4 59 12 8 41 -20 41 -40 0 -9 11 -14
29 -14 16 0 41 -4 56 -10 21 -8 33 -5 66 17 54 36 116 36 187 1 l52 -26 0 102
0 103 -68 12 c-81 14 -129 41 -138 75 -11 46 29 66 45 23 7 -17 24 -28 63 -40
106 -31 98 -34 98 45 0 81 -18 126 -59 151 -38 22 -98 22 -137 -2z m133 -45
c19 -23 23 -37 21 -75 -3 -44 -4 -46 -32 -43 -16 2 -46 17 -66 34 -27 21 -44
28 -59 23 -25 -8 -26 -3 -6 35 33 63 99 75 142 26z m-179 -121 c-3 -14 -1 -25
3 -25 5 0 9 -5 9 -11 0 -28 74 -73 138 -84 46 -7 57 -25 50 -81 -2 -22 -8 -28
-23 -27 -11 1 -43 5 -72 8 -37 4 -60 2 -82 -10 -52 -26 -77 -34 -90 -25 -19
11 13 55 60 82 64 36 62 66 -10 131 -50 45 -53 67 -10 67 28 0 31 -3 27 -25z
m-144 -90 c7 -19 -12 -76 -33 -95 -45 -41 -59 -70 -54 -109 4 -27 0 -46 -11
-62 -20 -30 -20 -48 1 -71 20 -22 47 -23 83 -2 26 16 29 16 51 0 37 -26 56
-19 113 39 35 37 61 55 77 55 36 0 101 -25 110 -42 13 -23 15 -110 3 -131 -16
-28 -59 -12 -100 39 -42 50 -63 54 -113 21 -59 -38 -76 -47 -92 -47 -25 0 -69
-39 -69 -61 0 -55 77 -75 152 -39 25 12 46 16 52 11 29 -24 87 -49 124 -56 50
-8 56 -23 50 -122 -4 -57 -8 -69 -32 -89 -51 -44 -111 -22 -142 52 -8 18 -23
39 -34 47 -17 12 -20 21 -14 54 5 35 3 43 -17 57 -33 22 -54 20 -77 -9 -24
-30 -33 -31 -49 -5 -7 10 -30 24 -50 30 -21 7 -46 23 -57 37 -16 21 -17 32 -8
75 8 45 7 54 -15 93 -26 47 -25 71 8 135 15 30 16 41 6 78 -15 56 5 91 65 113
55 22 65 22 72 4z"/>
</g>
</svg>
